<svg width="24" height="24" viewBox="0 0 24 24" fill="none" xmlns="http://www.w3.org/2000/svg">
<path d="M9 14.25C9.69036 14.25 10.25 13.6904 10.25 13C10.25 12.3096 9.69036 11.75 9 11.75C8.30964 11.75 7.75 12.3096 7.75 13C7.75 13.6904 8.30964 14.25 9 14.25Z" fill="black"/>
<path d="M15 14.25C15.6904 14.25 16.25 13.6904 16.25 13C16.25 12.3096 15.6904 11.75 15 11.75C14.3096 11.75 13.75 12.3096 13.75 13C13.75 13.6904 14.3096 14.25 15 14.25Z" fill="black"/>
<path d="M6 18V15H4V18H1V20H4V23H6V20H9V18H6Z" fill="black"/>
<path d="M12 2C6.48 2 2 6.48 2 12C2 12.338 2.021 12.672 2.057 13H4.068C4.025 12.673 4 12.339 4 12C4 11.71 4.02 11.42 4.05 11.14C6.41 10.09 8.28 8.16 9.26 5.77C11.07 8.33 14.05 10 17.42 10C18.2 10 18.95 9.91 19.67 9.74C19.88 10.45 20 11.21 20 12C20 16.41 16.41 20 12 20C11.661 20 11.328 19.976 11 19.932V21.944C11.328 21.979 11.662 22 12 22C17.52 22 22 17.52 22 12C22 6.48 17.52 2 12 2Z" fill="black"/>
</svg>
