<svg width="39" height="55" viewBox="0 0 39 55" fill="none" xmlns="http://www.w3.org/2000/svg">
<path d="M37.6342 26.6932C36.9998 26.0104 36.2063 25.6117 35.4132 25.4978C35.5718 24.1889 35.2018 22.8795 34.3025 21.8552C33.7207 21.2291 32.9276 20.8309 32.1342 20.6598C32.187 20.4323 32.187 20.2612 32.187 20.0337C32.187 18.8955 31.7638 17.7573 31.0235 16.9605C30.6532 16.5619 30.2305 16.2776 29.7543 16.0497L34.0376 11.4397C35.6242 9.73212 35.6242 7.00028 34.0376 5.29282C32.4511 3.58525 29.9128 3.58525 28.3264 5.29282L13.3617 21.3999C12.78 20.1478 11.8283 18.3834 10.6117 16.7898C9.81865 15.7083 8.76067 14.6841 7.49178 13.7166C5.64072 12.2937 3.20843 12.2937 1.41053 13.7166C-0.0701659 14.8548 -0.44053 16.961 0.564333 18.6113L2.78538 22.3106C3.94879 24.2457 4.53049 26.5225 4.4778 28.8557L4.31918 35.9133C4.31918 36.5962 4.05469 37.2223 3.57885 37.7348L0.564381 40.9792C0.0885272 41.4914 0.0885272 42.3453 0.564381 42.9142C0.828867 43.1989 1.1461 43.3128 1.46333 43.3128C1.78056 43.3128 2.0978 43.1989 2.36228 42.9142L5.37674 39.6699C6.27569 38.7023 6.80465 37.3934 6.85744 35.9706L7.01606 28.9129C7.06881 26.0672 6.32848 23.2214 4.90097 20.8309L2.67992 17.1316C2.41543 16.733 2.5213 16.2209 2.89129 15.9362C3.84298 15.1962 5.11233 15.1962 6.01123 15.9362C7.06878 16.733 7.96778 17.6438 8.60255 18.4973C10.5063 21.0584 11.7757 24.2457 11.7757 24.2457C11.9343 24.6443 12.3046 24.9857 12.6746 25.0425C13.0977 25.1564 13.5208 24.9857 13.838 24.6439L30.0728 7.17082C30.6545 6.54473 31.6062 6.54473 32.1879 7.17082C32.7696 7.79691 32.7696 8.82116 32.1879 9.44723L19.8664 22.8803C18.8615 23.9618 18.4915 25.4414 18.7557 26.8076C19.9191 32.613 15.7944 35.2881 15.6357 35.4017C15.054 35.8003 14.8426 36.5971 15.1599 37.2799C15.3712 37.7353 15.7943 37.9628 16.2706 37.9628C16.4819 37.9628 16.6937 37.906 16.9051 37.792C18.4916 36.8245 20.9771 34.1495 21.4529 30.0515C21.876 30.2223 22.2991 30.279 22.775 30.279C22.9863 30.279 23.1981 30.2223 23.3567 30.2223C23.5153 31.0758 23.8857 31.8726 24.4674 32.5559C25.2605 33.4095 26.2653 33.808 27.3228 33.808C27.4815 33.808 27.6401 33.7513 27.8518 33.7513C27.9577 34.6048 28.3277 35.4588 28.9625 36.1417C29.3856 36.5971 29.9142 36.9385 30.4432 37.166C28.3281 40.3532 25.7895 43.2561 23.8857 45.3047C22.1933 47.069 19.8668 47.8091 17.54 47.2397L16.1652 46.8983C15.7421 46.7843 15.319 46.9551 15.0018 47.2397L10.7711 51.7931C10.2952 52.3052 10.2952 53.1591 10.7711 53.7281C11.0356 54.0127 11.3528 54.1267 11.67 54.1267C11.9873 54.1267 12.3045 54.0127 12.569 53.7281L16.2706 49.7441L16.9582 49.9148C20.0782 50.7116 23.3571 49.6873 25.6309 47.2965C28.0105 44.7921 31.2363 41.0356 33.616 36.9948C33.9863 36.7673 34.3563 36.5394 34.6208 36.198L37.688 32.8969C38.4283 32.1001 38.8514 30.9619 38.8514 29.8237C38.851 28.6287 38.4279 27.5473 37.6348 26.6936L37.6342 26.6932ZM23.7791 27.0914C23.1974 27.7175 22.2457 27.7175 21.664 27.0914C21.0823 26.4654 21.0823 25.4411 21.664 24.815L27.1109 18.9527C27.6926 18.3266 28.6443 18.3266 29.226 18.9527C29.4905 19.2374 29.6491 19.6928 29.6491 20.0909C29.6491 20.5463 29.4905 20.9445 29.226 21.2292L23.7791 27.0914ZM28.3266 30.6205C27.7449 31.2466 26.7932 31.2466 26.2115 30.6205C25.6298 29.9944 25.6298 28.9702 26.2115 28.3441L30.389 23.848C30.7062 23.5065 31.0766 23.3926 31.4465 23.3926C31.8169 23.3926 32.2396 23.5633 32.5041 23.848C33.0858 24.4741 33.0858 25.4983 32.5041 26.1244L28.3266 30.6205ZM35.8361 30.9619L32.769 34.263C32.1873 34.8891 31.2356 34.8891 30.6539 34.263C30.0722 33.6369 30.0722 32.6127 30.6539 31.9866L33.721 28.6855C34.3028 28.0594 35.2544 28.0594 35.8361 28.6855C36.1006 28.9702 36.2592 29.4255 36.2592 29.8237C36.312 30.2219 36.1534 30.6205 35.8361 30.9619Z" fill="#0BBBD4"/>
<path d="M12.5681 6.48826C13.2557 6.48826 13.8374 5.86217 13.8374 5.12219V1.36607C13.8374 0.626049 13.2557 0 12.5681 0C11.8806 0 11.2989 0.62609 11.2989 1.36607V5.12259C11.2992 5.86222 11.881 6.48836 12.5681 6.48836V6.48826Z" fill="#0BBBD4"/>
<path d="M6.16952 8.53719C6.43401 8.82185 6.75125 8.93579 7.06847 8.93579C7.38571 8.93579 7.70294 8.82185 7.96742 8.53719C8.44327 8.02504 8.44327 7.17112 7.96742 6.60216L5.48196 3.92714C5.00611 3.41499 4.15991 3.41499 3.68407 3.92714C3.20822 4.43929 3.20822 5.29321 3.68407 5.86216L6.16952 8.53719Z" fill="#0BBBD4"/>
<path d="M18.0677 8.93561C18.385 8.93561 18.7022 8.82167 18.9667 8.53701L21.4521 5.86198C21.928 5.34983 21.928 4.49591 21.4521 3.92696C20.9763 3.41481 20.1301 3.41481 19.6542 3.92696L17.1688 6.60198C16.6929 7.11413 16.6929 7.96806 17.1688 8.53701C17.4329 8.82167 17.7501 8.93561 18.0677 8.93561Z" fill="#0BBBD4"/>
</svg>
