<svg width="24" height="24" viewBox="0 0 24 24" fill="none" xmlns="http://www.w3.org/2000/svg">
<path d="M16.1667 7.06666C16.1667 9.36666 14.3 11.2333 12 11.2333C9.73337 11.2333 7.8667 9.36666 7.8667 7.06666C7.8667 4.79999 9.7667 2.93332 12.0334 2.96666C14.3334 2.99999 16.1667 4.83332 16.1667 7.06666Z" fill="white"/>
<path d="M22.2333 20.2333V21.0333H1.7666V20.2333H3.29993C3.33327 19.6 3.33327 19 3.33327 18.3667C3.33327 17.8667 3.3666 17.4 3.39993 16.9C3.43327 16.4667 3.4666 16 3.53327 15.5667C3.79994 13.9 4.9666 12.7667 6.53327 12.2333C7.2666 11.9667 7.99994 11.8 8.73327 11.6667L11.9999 16.7667L15.2666 11.6333C15.8333 11.7 16.3999 11.8 16.8999 12C17.6666 12.2667 18.3999 12.7333 19.0333 13.2333C19.8999 13.8667 20.2999 14.8667 20.3666 15.9C20.3999 16.2333 20.3999 16.6 20.4333 16.9333C20.4666 17.4333 20.4666 17.9 20.4666 18.4C20.4666 19.0333 20.4666 19.6333 20.4999 20.2667H22.2333V20.2333Z" fill="white"/>
</svg>
