<svg width="24" height="24" viewBox="0 0 24 24" fill="none" xmlns="http://www.w3.org/2000/svg">
<g clip-path="url(#clip0_241_2)">
<path d="M11.5198 2.272C5.11981 2.272 -0.0961914 7.488 -0.0961914 13.888C-0.0961914 15.904 0.415809 17.824 1.34381 19.488C1.37581 19.552 1.40781 19.616 1.43981 19.648H21.5678C22.5598 17.952 23.1038 15.968 23.1038 13.888C23.1358 7.488 17.9198 2.272 11.5198 2.272ZM15.0078 3.232L15.9038 3.52L15.2638 5.44L14.3678 5.152L15.0078 3.232ZM11.0078 2.528H11.9358V4.768H11.0078V2.528ZM2.55981 13.792H0.447809V12.864H2.55981V13.792ZM3.16781 10.304L1.31181 9.44L1.69581 8.608L3.55181 9.472L3.16781 10.304ZM4.92781 7.552L3.58381 5.984L4.28781 5.376L5.63181 6.944L4.92781 7.552ZM7.80781 5.472L7.16781 3.552L8.06381 3.264L8.70381 5.184L7.80781 5.472ZM12.6718 15.136C12.4158 15.456 12.0638 15.68 11.6478 15.712C11.5838 15.712 11.5198 15.712 11.4558 15.712C11.1038 15.712 10.7838 15.616 10.5278 15.392C9.85581 14.88 9.72781 13.92 10.2398 13.248C10.5598 12.864 11.0398 12.64 11.5198 12.64L16.6718 6.88L17.1198 7.232L12.8958 13.728C13.0558 14.208 12.9598 14.72 12.6718 15.136ZM18.1118 7.552L17.4078 6.944L18.7518 5.376L19.4558 5.984L18.1118 7.552ZM19.4878 9.472L21.3438 8.608L21.7278 9.44L19.8718 10.304L19.4878 9.472ZM20.4798 13.792V12.864H22.6238V13.792H20.4798Z" fill="white"/>
<path d="M11.9998 14.624C11.7758 14.944 11.3278 14.976 11.0078 14.752C10.6878 14.528 10.6558 14.08 10.8798 13.76C11.1038 13.44 11.5518 13.376 11.8718 13.632C12.1598 13.856 12.2238 14.304 11.9998 14.624Z" fill="white"/>
<path d="M23.2959 20.96H-0.224121V21.728H23.2959V20.96Z" fill="white"/>
</g>
<defs>
<clipPath id="clip0_241_2">
<rect width="24" height="24" fill="white"/>
</clipPath>
</defs>
</svg>
