<svg width="24" height="24" viewBox="0 0 24 24" fill="none" xmlns="http://www.w3.org/2000/svg">
<path d="M12 11.3C13.2 11.3 14.1 10.4 14.1 9.20001C14.1 8.00001 13.2 7.10001 12 7.10001C10.8 7.10001 9.9 8.10001 9.9 9.20001C9.9 10.3 10.9 11.3 12 11.3ZM6.4 11.3C7.6 11.3 8.5 10.4 8.5 9.20001C8.5 8.00001 7.6 7.10001 6.4 7.10001C5.2 7.10001 4.3 8.10001 4.3 9.20001C4.3 10.3 5.3 11.3 6.4 11.3ZM6.4 12.7C4.8 12.7 1.5 13.5 1.5 15.1V16.8H11.3V15.1C11.3 13.5 8.1 12.7 6.4 12.7ZM12 12.7C11.8 12.7 11.6 12.7 11.3 12.7C12.1 13.3 12.7 14.1 12.7 15.1V16.8H16.9V15.1C16.9 13.5 13.7 12.7 12 12.7ZM17.6 11.3C18.8 11.3 19.7 10.4 19.7 9.20001C19.7 8.00001 18.8 7.10001 17.6 7.10001C16.4 7.10001 15.5 8.00001 15.5 9.20001C15.5 10.4 16.5 11.3 17.6 11.3ZM17.6 12.7C17.4 12.7 17.2 12.7 16.9 12.7C17.7 13.3 18.3 14.1 18.3 15.1V16.8H22.5V15.1C22.5 13.5 19.3 12.7 17.6 12.7Z" fill="black"/>
</svg>
