<svg width="50" height="50" viewBox="0 0 25 25" fill="none" xmlns="http://www.w3.org/2000/svg">
<g clip-path="url(#clip0_378_9)">
<path d="M12.4984 0C5.59688 0 7.21324e-06 5.61875 7.21324e-06 12.55C-0.00281251 15.1805 0.821123 17.7455 2.35537 19.8822C3.88961 22.019 6.05658 23.6196 8.55001 24.4578C9.17501 24.5734 9.40313 24.1859 9.40313 23.8531C9.40313 23.5547 9.39219 22.7656 9.38594 21.7187C5.90938 22.4766 5.17501 20.0359 5.17501 20.0359C4.60782 18.5859 3.78751 18.2 3.78751 18.2C2.65157 17.4219 3.87188 17.4375 3.87188 17.4375C5.12657 17.5266 5.78594 18.7312 5.78594 18.7312C6.90157 20.6484 8.71251 20.0953 9.42501 19.7734C9.53751 18.9625 9.86094 18.4094 10.2188 18.0953C7.44376 17.7781 4.52501 16.7016 4.52501 11.8937C4.52501 10.5234 5.01251 9.40312 5.81251 8.525C5.68282 8.20781 5.25469 6.93125 5.93438 5.20469C5.93438 5.20469 6.98438 4.86719 9.37188 6.49062C10.3918 6.21189 11.4443 6.07003 12.5016 6.06875C13.5589 6.07085 14.6113 6.21324 15.6313 6.49219C18.0172 4.86875 19.0656 5.20625 19.0656 5.20625C19.7469 6.93437 19.3188 8.20937 19.1906 8.52656C19.9922 9.40469 20.475 10.525 20.475 11.8953C20.475 16.7156 17.5531 17.7766 14.7688 18.0875C15.2172 18.475 15.6172 19.2406 15.6172 20.4109C15.6172 22.0891 15.6016 23.4422 15.6016 23.8531C15.6016 24.1891 15.8266 24.5797 16.4609 24.4563C18.9519 23.6161 21.1162 22.0149 22.6483 19.8786C24.1804 17.7423 25.003 15.1789 25 12.55C25 5.61875 19.4031 0 12.4984 0Z" fill="black"/>
</g>
<defs>
<clipPath id="clip0_378_9">
<rect width="25" height="25" fill="white"/>
</clipPath>
</defs>
</svg>
