<svg width="19" height="19" viewBox="0 0 19 19" fill="none" xmlns="http://www.w3.org/2000/svg">
<path d="M2.05429 0C0.897214 0 0 0.897321 0 2.05429V15.9621C0 17.1192 0.897321 18.0164 2.05429 18.0164H15.9621C17.1192 18.0164 18.0164 17.1191 18.0164 15.9621V2.05429C18.0164 0.897214 17.1191 0 15.9621 0H2.05429ZM8.99643 2.29046C10.6258 2.29046 11.4522 4.25029 10.2951 5.43096C9.56311 6.13939 8.42975 6.16296 7.69771 5.43096C6.54064 4.27389 7.36708 2.29046 8.99639 2.29046H8.99643ZM6.54064 6.94225H10.2242V14.7108H11.8535V15.9386H6.11568V14.7108H7.745V7.74511H6.51718V6.91864L6.54064 6.94225Z" fill="white"/>
</svg>
