<svg width="50" height="50" viewBox="0 0 25 25" fill="none" xmlns="http://www.w3.org/2000/svg">
<path d="M23.6111 0H1.38889C0.621827 0 0 0.621827 0 1.38889V23.6111C0 24.3782 0.621827 25 1.38889 25H23.6111C24.3782 25 25 24.3782 25 23.6111V1.38889C25 0.621827 24.3782 0 23.6111 0Z" fill="#117EB8"/>
<path fill-rule="evenodd" clip-rule="evenodd" d="M4.56203 9.66944H7.90335V20.4201H4.56203V9.66944V9.66944ZM6.23321 4.32534C7.30161 4.32534 8.16967 5.1934 8.16967 6.2618C8.16967 7.33125 7.30161 8.19965 6.23321 8.19965C5.97574 8.20452 5.71987 8.15802 5.48057 8.06286C5.24128 7.9677 5.02336 7.82579 4.83954 7.64542C4.65573 7.46506 4.50972 7.24986 4.41005 7.01241C4.31037 6.77496 4.25903 6.52002 4.25903 6.2625C4.25903 6.00497 4.31037 5.75003 4.41005 5.51258C4.50972 5.27513 4.65573 5.05993 4.83954 4.87957C5.02336 4.69921 5.24128 4.55729 5.48057 4.46213C5.71987 4.36697 5.97574 4.32047 6.23321 4.32534V4.32534ZM9.99918 9.66909H13.204V11.1382H13.2485C13.6947 10.2931 14.7846 9.40208 16.4099 9.40208C19.7933 9.40208 20.4183 11.6288 20.4183 14.5236V20.4201H17.079V15.192C17.079 13.9455 17.0561 12.3417 15.3429 12.3417C13.6044 12.3417 13.3374 13.6996 13.3374 15.1021V20.4201H9.99884V9.66944L9.99918 9.66909Z" fill="white"/>
</svg>
