<svg width="211" height="64.2" viewBox="0 0 422 129" fill="none" xmlns="http://www.w3.org/2000/svg">
<path d="M95.8382 61.6245C94.7056 60.4055 93.2892 59.6939 91.8734 59.4905C92.1566 57.1539 91.4961 54.8166 89.8907 52.9881C88.8522 51.8705 87.4364 51.1597 86.0201 50.8542C86.1143 50.4481 86.1143 50.1426 86.1143 49.7365C86.1143 47.7047 85.359 45.6729 84.0375 44.2505C83.3764 43.539 82.6217 43.0315 81.7717 42.6247L89.4179 34.3953C92.2501 31.3471 92.2501 26.4705 89.4179 23.4225C86.5858 20.3744 82.0547 20.3744 79.2227 23.4225L52.5092 52.1753C51.4708 49.9401 49.772 46.7905 47.6003 43.9459C46.1845 42.0153 44.2959 40.1869 42.0308 38.4599C38.7265 35.9199 34.3846 35.9199 31.1752 38.4599C28.532 40.4917 27.8708 44.2514 29.6646 47.1975L33.6294 53.8011C35.7062 57.2553 36.7446 61.3197 36.6506 65.4847L36.3674 78.0833C36.3674 79.3023 35.8953 80.4199 35.0458 81.3349L29.6647 87.1264C28.8153 88.0407 28.8153 89.565 29.6647 90.5807C30.1368 91.0888 30.7031 91.2922 31.2694 91.2922C31.8357 91.2922 32.402 91.0888 32.8741 90.5807L38.2553 84.7891C39.86 83.062 40.8042 80.7255 40.8985 78.1855L41.1816 65.5869C41.2758 60.5069 39.9542 55.4269 37.406 51.1597L33.4412 44.5561C32.969 43.8445 33.158 42.9303 33.8185 42.4221C35.5173 41.1011 37.7833 41.1011 39.3879 42.4221C41.2757 43.8445 42.8805 45.4703 44.0137 46.9939C47.4121 51.5657 49.678 57.2553 49.678 57.2553C49.9612 57.9669 50.6223 58.5763 51.2827 58.6777C52.038 58.8811 52.7933 58.5763 53.3595 57.9661L82.3403 26.775C83.3787 25.6573 85.0776 25.6573 86.116 26.775C87.1544 27.8926 87.1544 29.721 86.116 30.8386L64.1208 54.818C62.327 56.7486 61.6665 59.3898 62.138 61.8286C64.2148 72.192 56.8518 76.9672 56.5686 77.17C55.5302 77.8815 55.1529 79.304 55.7192 80.5228C56.0965 81.3357 56.8518 81.7418 57.7019 81.7418C58.0792 81.7418 58.4572 81.6404 58.8345 81.437C61.6667 79.7099 66.1035 74.9346 66.9529 67.6194C67.7082 67.9242 68.4634 68.0255 69.3129 68.0255C69.6902 68.0255 70.0682 67.9242 70.3513 67.9242C70.6345 69.4479 71.2956 70.8702 72.3341 72.09C73.7498 73.6137 75.5435 74.3252 77.4313 74.3252C77.7145 74.3252 77.9976 74.2238 78.3756 74.2238C78.5646 75.7475 79.225 77.272 80.3583 78.491C81.1136 79.3039 82.0572 79.9134 83.0015 80.3194C79.2259 86.0089 74.6942 91.191 71.2958 94.8479C68.2746 97.9973 64.1215 99.3185 59.9679 98.3021L57.5137 97.6926C56.7584 97.4892 56.0032 97.794 55.4369 98.3021L47.8847 106.43C47.0353 107.345 47.0353 108.869 47.8847 109.884C48.3569 110.393 48.9232 110.596 49.4895 110.596C50.0557 110.596 50.6221 110.393 51.0942 109.884L57.702 102.773L58.9294 103.077C64.4988 104.5 70.3521 102.671 74.411 98.4035C78.6588 93.9329 84.4172 87.2271 88.6652 80.0139C89.3263 79.6078 89.9868 79.201 90.459 78.5915L95.9342 72.6987C97.2558 71.2763 98.011 69.2445 98.011 67.2127C98.0103 65.0794 97.255 63.149 95.8393 61.6252L95.8382 61.6245ZM71.1054 62.3353C70.067 63.453 68.3682 63.453 67.3298 62.3353C66.2913 61.2177 66.2913 59.3893 67.3298 58.2717L77.053 47.8069C78.0914 46.6893 79.7902 46.6893 80.8286 47.8069C81.3008 48.3151 81.5839 49.1279 81.5839 49.8387C81.5839 50.6516 81.3008 51.3624 80.8286 51.8705L71.1054 62.3353ZM79.2231 68.6351C78.1847 69.7527 76.4859 69.7527 75.4475 68.6351C74.4091 67.5175 74.4091 65.689 75.4475 64.5714L82.9047 56.5454C83.471 55.9359 84.1321 55.7325 84.7926 55.7325C85.4537 55.7325 86.2083 56.0373 86.6804 56.5454C87.7188 57.663 87.7188 59.4914 86.6804 60.609L79.2231 68.6351ZM92.6284 69.2446L87.1532 75.1374C86.1148 76.255 84.416 76.255 83.3776 75.1374C82.3392 74.0197 82.3392 72.1913 83.3776 71.0737L88.8528 65.1809C89.8912 64.0633 91.59 64.0633 92.6284 65.1809C93.1006 65.6891 93.3837 66.502 93.3837 67.2128C93.4779 67.9236 93.1947 68.6351 92.6284 69.2446Z" fill="white"/>
<path d="M51.0924 25.5565C52.3198 25.5565 53.3582 24.4389 53.3582 23.1179V16.4129C53.3582 15.0919 52.3198 13.9743 51.0924 13.9743C49.8651 13.9743 48.8267 15.0919 48.8267 16.4129V23.1186C48.8273 24.439 49.8658 25.5567 51.0924 25.5567V25.5565Z" fill="white"/>
<path d="M39.6701 29.2141C40.1422 29.7222 40.7085 29.9256 41.2748 29.9256C41.8411 29.9256 42.4074 29.7222 42.8795 29.2141C43.7289 28.2999 43.7289 26.7755 42.8795 25.7599L38.4427 20.9847C37.5933 20.0705 36.0827 20.0705 35.2333 20.9847C34.3838 21.8989 34.3838 23.4233 35.2333 24.4389L39.6701 29.2141Z" fill="white"/>
<path d="M60.9103 29.9253C61.4766 29.9253 62.0429 29.7219 62.515 29.2138L66.9518 24.4386C67.8012 23.5243 67.8012 22 66.9518 20.9843C66.1023 20.0701 64.5918 20.0701 63.7423 20.9843L59.3055 25.7595C58.4561 26.6738 58.4561 28.1981 59.3055 29.2138C59.777 29.7219 60.3433 29.9253 60.9103 29.9253Z" fill="white"/>
<path d="M194.843 54.207H179.444C179.163 52.2148 178.589 50.4453 177.722 48.8984C176.854 47.3281 175.741 45.9922 174.382 44.8906C173.022 43.7891 171.452 42.9453 169.671 42.3594C167.913 41.7734 166.003 41.4805 163.94 41.4805C160.214 41.4805 156.968 42.4062 154.202 44.2578C151.437 46.0859 149.292 48.7578 147.769 52.2734C146.245 55.7656 145.483 60.0078 145.483 65C145.483 70.1328 146.245 74.4453 147.769 77.9375C149.315 81.4297 151.472 84.0664 154.237 85.8477C157.003 87.6289 160.202 88.5195 163.835 88.5195C165.874 88.5195 167.761 88.25 169.495 87.7109C171.253 87.1719 172.812 86.3867 174.171 85.3555C175.53 84.3008 176.655 83.0234 177.546 81.5234C178.46 80.0234 179.093 78.3125 179.444 76.3906L194.843 76.4609C194.444 79.7656 193.448 82.9531 191.854 86.0234C190.284 89.0703 188.163 91.8008 185.491 94.2148C182.843 96.6055 179.679 98.5039 175.999 99.9102C172.343 101.293 168.206 101.984 163.589 101.984C157.167 101.984 151.425 100.531 146.362 97.625C141.323 94.7187 137.339 90.5117 134.409 85.0039C131.503 79.4961 130.05 72.8281 130.05 65C130.05 57.1484 131.526 50.4688 134.479 44.9609C137.433 39.4531 141.44 35.2578 146.503 32.375C151.565 29.4687 157.261 28.0156 163.589 28.0156C167.761 28.0156 171.628 28.6016 175.19 29.7734C178.776 30.9453 181.952 32.6562 184.718 34.9062C187.483 37.1328 189.733 39.8633 191.468 43.0977C193.226 46.332 194.351 50.0352 194.843 54.207ZM205.478 101V47H220.454V101H205.478ZM213.001 40.0391C210.774 40.0391 208.864 39.3008 207.271 37.8242C205.7 36.3242 204.915 34.5312 204.915 32.4453C204.915 30.3828 205.7 28.6133 207.271 27.1367C208.864 25.6367 210.774 24.8867 213.001 24.8867C215.228 24.8867 217.126 25.6367 218.696 27.1367C220.29 28.6133 221.087 30.3828 221.087 32.4453C221.087 34.5312 220.29 36.3242 218.696 37.8242C217.126 39.3008 215.228 40.0391 213.001 40.0391ZM247.428 69.7813V101H232.451V47H246.725V56.5273H247.357C248.553 53.3867 250.557 50.9023 253.369 49.0742C256.182 47.2227 259.592 46.2969 263.6 46.2969C267.35 46.2969 270.619 47.1172 273.408 48.7578C276.197 50.3984 278.365 52.7422 279.912 55.7891C281.459 58.8125 282.232 62.4219 282.232 66.6172V101H267.256V69.2891C267.279 65.9844 266.436 63.4062 264.725 61.5547C263.014 59.6797 260.658 58.7422 257.658 58.7422C255.643 58.7422 253.861 59.1758 252.314 60.043C250.791 60.9102 249.596 62.1758 248.729 63.8398C247.885 65.4805 247.451 67.4609 247.428 69.7813ZM318.435 102.055C312.903 102.055 308.146 100.883 304.161 98.5391C300.2 96.1719 297.153 92.8906 295.021 88.6953C292.911 84.5 291.856 79.6719 291.856 74.2109C291.856 68.6797 292.923 63.8281 295.056 59.6562C297.212 55.4609 300.271 52.1914 304.231 49.8477C308.192 47.4805 312.903 46.2969 318.364 46.2969C323.075 46.2969 327.2 47.1523 330.739 48.8633C334.278 50.5742 337.079 52.9766 339.142 56.0703C341.204 59.1641 342.341 62.7969 342.552 66.9688H328.419C328.021 64.2734 326.966 62.1055 325.255 60.4648C323.567 58.8008 321.353 57.9687 318.61 57.9687C316.29 57.9687 314.263 58.6016 312.528 59.8672C310.817 61.1094 309.481 62.9258 308.521 65.3164C307.56 67.707 307.079 70.6016 307.079 74C307.079 77.4453 307.548 80.375 308.485 82.7891C309.446 85.2031 310.794 87.043 312.528 88.3086C314.263 89.5742 316.29 90.207 318.61 90.207C320.321 90.207 321.856 89.8555 323.216 89.1523C324.599 88.4492 325.735 87.4297 326.626 86.0937C327.54 84.7344 328.138 83.1055 328.419 81.207H342.552C342.317 85.332 341.192 88.9648 339.177 92.1055C337.185 95.2227 334.431 97.6602 330.915 99.418C327.399 101.176 323.239 102.055 318.435 102.055ZM367.117 69.7813V101H352.141V29H366.695V56.5273H367.328C368.547 53.3398 370.516 50.8437 373.234 49.0391C375.953 47.2109 379.363 46.2969 383.465 46.2969C387.215 46.2969 390.484 47.1172 393.273 48.7578C396.086 50.375 398.266 52.707 399.813 55.7539C401.383 58.7773 402.156 62.3984 402.133 66.6172V101H387.156V69.2891C387.18 65.9609 386.336 63.3711 384.625 61.5195C382.938 59.668 380.57 58.7422 377.523 58.7422C375.484 58.7422 373.68 59.1758 372.109 60.043C370.563 60.9102 369.344 62.1758 368.453 63.8398C367.586 65.4805 367.141 67.4609 367.117 69.7813Z" fill="white"/>
</svg>
