<svg width="24" height="24" viewBox="0 0 24 24" fill="none" xmlns="http://www.w3.org/2000/svg">
<path d="M19.4239 20.512L16.7039 13.12C16.6399 12.928 16.4159 12.8 16.1599 12.8H14.0799C13.4079 14.4 12.6399 15.936 11.9039 17.408C11.8399 17.504 11.7439 17.6 11.6159 17.6C11.4879 17.6 11.3599 17.536 11.3279 17.408C10.5279 15.872 9.7919 14.304 9.1519 12.8H7.4559C7.1999 12.8 6.9759 12.928 6.9119 13.088L3.7759 20.48C3.7439 20.608 3.7439 20.704 3.8079 20.832C3.9039 20.992 4.0959 21.088 4.3199 21.088H18.8799C19.1039 21.088 19.2639 20.992 19.3919 20.864C19.4559 20.736 19.4559 20.608 19.4239 20.512ZM12.9279 19.328H10.2399V18.208H12.8959V19.328H12.9279Z" fill="white"/>
<path d="M14.944 5.056C14.304 3.776 12.992 2.944 11.616 2.944C11.488 2.944 11.36 2.944 11.232 2.976C9.66401 3.136 8.32001 4.32 7.96801 5.824C7.61601 7.36 8.32001 8.96 8.92801 10.336C9.02401 10.56 9.12001 10.752 9.21601 10.976C9.28001 11.136 9.34401 11.328 9.44001 11.488C9.44001 11.52 9.47201 11.552 9.47201 11.584C9.50401 11.616 9.50401 11.648 9.50401 11.68C10.144 13.12 10.848 14.624 11.616 16.096C12.32 14.688 13.056 13.184 13.728 11.68C13.728 11.648 13.76 11.616 13.76 11.584C13.792 11.552 13.792 11.52 13.792 11.488C14.144 10.688 14.464 9.888 14.752 9.056C15.072 8.16 15.296 7.424 15.296 6.688V6.624C15.296 6.048 15.168 5.536 14.944 5.056ZM13.376 7.68C13.088 8.416 12.384 8.928 11.584 8.928C10.528 8.928 9.66401 8.064 9.66401 7.008C9.66401 5.952 10.528 5.088 11.584 5.088C12.64 5.088 13.504 5.952 13.504 7.008C13.504 7.232 13.472 7.456 13.376 7.68Z" fill="white"/>
</svg>
