<svg width="24" height="24" viewBox="0 0 28 28" fill="none" xmlns="http://www.w3.org/2000/svg">
<path d="M4.13852 10.3079C3.82454 8.75272 4.11005 8.44158 4.42402 8.44158H4.48116C4.2528 7.54731 4.2528 6.69186 4.39555 5.91425C4.56678 4.98096 4.93791 4.24237 5.33745 3.65897C5.59428 3.27002 5.90824 2.9592 6.22221 2.68687C6.47904 2.45361 6.76456 2.22034 7.07853 2.10372C7.33536 1.98709 7.59219 1.90924 7.84922 1.90924C7.9633 1.90924 8.07758 1.87046 8.19167 1.87046C8.87673 1.87046 9.41888 2.14278 9.81868 2.45361C10.5037 2.95919 10.7606 3.65895 10.7606 3.65895C10.7606 3.65895 12.5017 3.81436 11.731 8.79179C11.9593 8.90842 12.1305 9.33615 11.845 10.6582C11.5882 11.9026 11.3314 12.2525 11.16 12.2525C11.1028 12.2525 11.0744 12.2137 11.0172 12.1746C10.9316 12.719 10.8173 13.3412 10.6176 13.9243V15.7519C10.6176 15.8297 10.6461 15.9073 10.7033 15.9464C10.846 16.063 11.2456 16.2963 11.7308 16.6852C11.1884 17.1908 10.6176 17.774 10.0753 18.3962C9.4189 19.1351 9.0478 20.2238 9.0478 21.4292V24.7732H6.93578L0 24.7729V21.7012C0 21.0402 0.199893 20.4568 0.570795 20.0293C2.5974 17.7353 4.795 16.2188 5.25173 15.9464C5.30887 15.9077 5.33734 15.8298 5.33734 15.752V14.1577C5.02337 13.4579 4.88062 12.68 4.79499 11.9802C4.62376 11.8633 4.3954 11.5522 4.13857 10.3081L4.13852 10.3079ZM19.8939 24.5784H22.063C22.0346 24.3452 22.0059 24.1119 22.0059 23.8395C21.9774 23.373 22.12 22.9453 22.3483 22.5951C22.5196 22.3619 22.7194 22.2062 22.9478 22.1286C22.6054 21.623 22.2628 20.7675 22.2628 19.4455C22.2628 18.318 22.5767 17.3459 23.1475 16.568C23.2047 16.4902 23.2903 16.3735 23.3759 16.2957C22.5767 15.6735 21.9773 15.2458 21.7489 15.0904C21.6917 15.0516 21.6633 14.9737 21.6633 14.8959V12.9129C21.8916 12.2907 22.0057 11.6684 22.0913 11.0465C22.2912 11.241 22.605 11.1243 22.9761 9.41337C23.2616 8.01354 23.0901 7.547 22.8333 7.43035H22.7762C22.8046 7.23587 22.8333 7.11924 22.8333 7.11924C23.6898 1.71435 21.4635 1.94766 21.4635 1.94766C21.2923 0.858901 20.1505 -0.229784 19.123 0.0422656C18.0957 0.353644 15.9263 0.0034791 15.9263 0.0034791C15.8978 0.625687 16.2974 1.05342 16.2974 1.05342C14.0711 2.91979 14.9843 7.11927 14.9843 7.11927C14.6419 7.08048 14.2423 7.35253 14.6132 9.14131C14.8987 10.4633 15.1269 10.8132 15.3268 10.8523C15.4124 11.5912 15.5836 12.4466 15.8976 13.1855V14.8964C15.8976 14.9743 15.8691 15.0519 15.812 15.0909C15.3268 15.402 12.9862 17.0351 10.7886 19.4849C10.389 19.9126 10.1891 20.5736 10.1891 21.2737V24.579H17.6386L19.8939 24.5784ZM27.429 22.0898C27.7715 22.5176 27.9714 23.1398 27.9714 23.9562C27.9714 24.7338 27.8002 25.356 27.429 25.8226C27.1151 26.2115 26.744 26.4836 26.2587 26.6002V27.7277C26.2587 27.8831 26.1731 28 26.0588 28H25.3453C25.2312 28 25.1454 27.8834 25.1454 27.7277V26.6389C24.5459 26.5611 24.0322 26.25 23.6327 25.7447C23.2615 25.2781 23.0619 24.6172 23.0332 23.8005C23.0332 23.645 23.1188 23.4893 23.2615 23.4893L24.4318 23.4506C24.5459 23.4506 24.6602 23.5672 24.6602 23.7229C24.6886 24.1118 24.7743 24.4227 24.917 24.6171C25.0882 24.8504 25.3166 24.967 25.6021 24.967C25.8304 24.967 26.0017 24.8892 26.1444 24.6947C26.2585 24.5002 26.3157 24.267 26.3157 23.9559C26.3157 23.606 26.2585 23.3336 26.1444 23.1391C26.0304 22.9447 25.802 22.7502 25.488 22.556C24.7173 22.1283 24.1465 21.7005 23.8041 21.2728C23.4616 20.8451 23.2904 20.2229 23.2904 19.3674C23.2904 18.6286 23.4903 18.0063 23.8612 17.5011C24.2036 17.0733 24.6319 16.8013 25.1743 16.6844V15.5178C25.1743 15.3623 25.2599 15.2454 25.3741 15.2454H26.0877C26.2018 15.2454 26.2876 15.3621 26.2876 15.5178V16.7231C26.8013 16.8785 27.2011 17.1896 27.5148 17.6564C27.8003 18.1229 27.9715 18.7063 28 19.4061C28 19.5615 27.9144 19.7172 27.7716 19.7172L26.5727 19.8344C26.4586 19.8344 26.3443 19.7178 26.3443 19.5621C26.3159 19.2122 26.2587 18.9399 26.1445 18.7454C26.0017 18.5121 25.8305 18.3955 25.6021 18.3955C25.3737 18.3955 25.2025 18.5121 25.0884 18.7066C24.9744 18.9011 24.9172 19.1343 24.9172 19.4454C24.9172 19.7566 24.9744 19.9898 25.0884 20.1843C25.2025 20.3788 25.4309 20.5733 25.7449 20.7675C26.5156 21.1955 27.0579 21.662 27.429 22.0897L27.429 22.0898Z" fill="black"/>
</svg>
