<svg width="24" height="24" viewBox="0 0 24 24" fill="none" xmlns="http://www.w3.org/2000/svg">
<path d="M21.117 17.975L13.359 10.218C14.127 8.25801 13.701 5.95601 12.081 4.33601C10.376 2.63001 7.81897 2.29001 5.77297 3.22801L9.43897 6.89301L6.88097 9.45001L3.12997 5.78501C2.10697 7.83101 2.53297 10.388 4.23797 12.093C5.85797 13.712 8.15897 14.139 10.12 13.371L17.878 21.129C18.219 21.469 18.731 21.469 19.071 21.129L21.031 19.168C21.458 18.827 21.458 18.23 21.117 17.975Z" fill="black"/>
<path d="M6 18V15H4V18H1V20H4V23H6V20H9V18H6Z" fill="black"/>
</svg>
