<svg width="24" height="24" viewBox="0 0 24 24" fill="none" xmlns="http://www.w3.org/2000/svg">
<path d="M21.1001 3.13333H19.3334V3.7H20.9001C21.1334 3.7 21.3334 3.9 21.3334 4.13333V5.96666H2.66676V4C2.66676 3.83333 2.8001 3.7 2.96676 3.7H4.5001V3.13333H2.9001C2.46676 3.13333 2.1001 3.5 2.1001 3.93333V20.7667C2.1001 21.2 2.46676 21.5667 2.9001 21.5667H21.1001C21.5334 21.5667 21.9001 21.2 21.9001 20.7667V3.93333C21.9001 3.5 21.5334 3.13333 21.1001 3.13333ZM10.5334 19.7V17.7667H13.5001V19.7H10.5334ZM18.7334 17.7667V19.7H15.7668V17.7667H18.7334ZM15.7668 15.9V14H18.7334V15.9333H15.7668V15.9ZM18.7334 12.1333H15.7668V10.2H18.7334V12.1333ZM13.9668 7.8H18.6001V8.36667H13.9668V7.8ZM13.5001 15.9H10.5334V14H13.5001V15.9ZM11.4334 11.6667V10.7H12.4668V11.6667H11.4334ZM5.76676 7.8H13.2001V8.36667H5.76676V7.8ZM7.2001 10.7V11.6667H6.16676V10.7H7.2001ZM5.3001 14H8.26676V15.9333H5.3001V14ZM5.3001 17.7667H8.26676V19.7H5.3001V17.7667Z" fill="white"/>
<path d="M7.30014 3.7C7.30014 3.76667 7.30014 3.8 7.26681 3.83333V4.9H6.70014V3.76667V3.73333C6.70014 3.6 6.73347 3.3 6.60014 3.16667C6.56681 3.13333 6.50014 3.03333 6.26681 3.03333C6.03347 3.03333 5.96681 3.13333 5.93347 3.16667C5.83347 3.3 5.83347 3.6 5.83347 3.76667H5.26681C5.23347 3.53333 5.26681 3.13333 5.50014 2.83333C5.63347 2.66667 5.86681 2.5 6.26681 2.5C6.70014 2.5 6.93347 2.7 7.06681 2.83333C7.33347 3.06667 7.33347 3.5 7.30014 3.7Z" fill="white"/>
<path d="M10.1001 3.70001C10.1001 3.76667 10.1001 3.80001 10.1001 3.83334V4.90001H9.53343V3.76667V3.73334C9.56677 3.60001 9.56677 3.30001 9.43343 3.16667C9.4001 3.10001 9.33343 3.00001 9.1001 3.00001C8.86677 3.00001 8.8001 3.10001 8.76677 3.13334C8.66677 3.30001 8.66677 3.56667 8.66677 3.73334H8.1001C8.06677 3.50001 8.06677 3.10001 8.33343 2.80001C8.43343 2.63334 8.66677 2.46667 9.1001 2.46667C9.5001 2.46667 9.76677 2.66667 9.86677 2.80001C10.1334 3.06667 10.1334 3.46667 10.1001 3.70001Z" fill="white"/>
<path d="M12.8333 3.7C12.8333 3.76667 12.8333 3.8 12.8 3.83333V4.9H12.2333V3.76667V3.73333C12.2333 3.6 12.2667 3.3 12.1333 3.16667C12.1 3.13333 12.0333 3.03333 11.8 3.03333C11.5667 3.03333 11.5 3.13333 11.4667 3.16667C11.3667 3.3 11.3667 3.6 11.3667 3.76667H10.8C10.7667 3.53333 10.8 3.13333 11.0333 2.83333C11.1667 2.66667 11.4 2.5 11.8 2.5C12.2333 2.5 12.4667 2.7 12.6 2.83333C12.8333 3.06667 12.8333 3.5 12.8333 3.7Z" fill="white"/>
<path d="M15.6334 3.7C15.6334 3.76667 15.6334 3.8 15.6001 3.83333V4.9H15.0334V3.76667V3.73333C15.0334 3.6 15.0667 3.3 14.9334 3.16667C14.9001 3.13333 14.8334 3.03333 14.6001 3.03333C14.3667 3.03333 14.3001 3.13333 14.2667 3.16667C14.1334 3.33333 14.1667 3.6 14.1667 3.76667H13.6001C13.5667 3.53333 13.6001 3.13333 13.8334 2.83333C13.9667 2.66667 14.2001 2.5 14.6001 2.5C15.0001 2.5 15.2667 2.7 15.3667 2.83333C15.6334 3.06667 15.6334 3.5 15.6334 3.7Z" fill="white"/>
<path d="M18.2667 3.7C18.2667 3.76667 18.2667 3.8 18.2334 3.83333V4.9H17.6667V3.76667V3.73333C17.6667 3.6 17.7 3.3 17.5667 3.16667C17.5334 3.13333 17.4667 3.03333 17.2334 3.03333C17 3.03333 16.9334 3.13333 16.9 3.16667C16.8 3.3 16.8 3.6 16.8 3.76667H16.2334C16.2 3.53333 16.2334 3.13333 16.4667 2.83333C16.6 2.66667 16.8334 2.5 17.2334 2.5C17.6667 2.5 17.9 2.7 18.0334 2.83333C18.2667 3.06667 18.3 3.5 18.2667 3.7Z" fill="white"/>
</svg>
