<svg width="31" height="31" viewBox="0 0 31 31" fill="none" xmlns="http://www.w3.org/2000/svg">
<path fill-rule="evenodd" clip-rule="evenodd" d="M6.45833 13.5625C6.45833 9.63897 9.63897 6.45833 13.5625 6.45833C17.4861 6.45833 20.6667 9.63897 20.6667 13.5625C20.6667 17.4861 17.4861 20.6667 13.5625 20.6667C9.63897 20.6667 6.45833 17.4861 6.45833 13.5625ZM13.5625 3.875C8.21224 3.875 3.875 8.21224 3.875 13.5625C3.875 18.9127 8.21224 23.25 13.5625 23.25C15.7719 23.25 17.8086 22.5104 19.4384 21.2651L24.92 26.7467C25.4244 27.2511 26.2423 27.2511 26.7467 26.7467C27.2511 26.2423 27.2511 25.4244 26.7467 24.92L21.2651 19.4384C22.5104 17.8086 23.25 15.7719 23.25 13.5625C23.25 8.21224 18.9127 3.875 13.5625 3.875Z" fill="#0BBBD4"/>
</svg>
