<svg width="24" height="24" viewBox="0 0 24 24" fill="none" xmlns="http://www.w3.org/2000/svg">
<path d="M19.1401 12.936C19.1761 12.636 19.2001 12.324 19.2001 12C19.2001 11.676 19.1761 11.364 19.1281 11.064L21.1561 9.47999C21.3361 9.33599 21.3841 9.07199 21.2761 8.86799L19.3561 5.54399C19.2361 5.32799 18.9841 5.25599 18.7681 5.32799L16.3801 6.28799C15.8761 5.90399 15.3481 5.59199 14.7601 5.35199L14.4001 2.80799C14.3641 2.56799 14.1601 2.39999 13.9201 2.39999H10.0801C9.84011 2.39999 9.64811 2.56799 9.61211 2.80799L9.25211 5.35199C8.66411 5.59199 8.12411 5.91599 7.63211 6.28799L5.24411 5.32799C5.02811 5.24399 4.77611 5.32799 4.65611 5.54399L2.73611 8.86799C2.61611 9.08399 2.66411 9.33599 2.85611 9.47999L4.88411 11.064C4.83611 11.364 4.80011 11.688 4.80011 12C4.80011 12.312 4.82411 12.636 4.87211 12.936L2.84411 14.52C2.66411 14.664 2.61611 14.928 2.72411 15.132L4.64411 18.456C4.76411 18.672 5.01611 18.744 5.23211 18.672L7.62011 17.712C8.12411 18.096 8.65211 18.408 9.24011 18.648L9.60011 21.192C9.64811 21.432 9.84011 21.6 10.0801 21.6H13.9201C14.1601 21.6 14.3641 21.432 14.3881 21.192L14.7481 18.648C15.3361 18.408 15.8761 18.084 16.3681 17.712L18.7561 18.672C18.9721 18.756 19.2241 18.672 19.3441 18.456L21.2641 15.132C21.3841 14.916 21.3361 14.664 21.1441 14.52L19.1401 12.936V12.936ZM12.0001 15.6C10.0201 15.6 8.40011 13.98 8.40011 12C8.40011 10.02 10.0201 8.39999 12.0001 8.39999C13.9801 8.39999 15.6001 10.02 15.6001 12C15.6001 13.98 13.9801 15.6 12.0001 15.6Z" fill="black"/>
</svg>
