<svg width="9" height="15" viewBox="0 0 9 15" fill="none" xmlns="http://www.w3.org/2000/svg">
<path d="M8.71804 6.96676C8.57106 6.78854 8.38726 6.6845 8.20353 6.65476C8.24027 6.31313 8.15457 5.9714 7.94623 5.70407C7.81147 5.54067 7.62775 5.43674 7.44395 5.39207C7.45617 5.3327 7.45617 5.28804 7.45617 5.22867C7.45617 4.9316 7.35816 4.63454 7.18666 4.42658C7.10087 4.32254 7.00294 4.24835 6.89264 4.18888L7.88488 2.98569C8.25241 2.54002 8.25241 1.82703 7.88488 1.3814C7.51735 0.935734 6.92936 0.935734 6.56186 1.3814L3.09526 5.58523C2.9605 5.25843 2.74005 4.79794 2.45823 4.38204C2.27451 4.09978 2.02943 3.83245 1.73549 3.57995C1.30668 3.20859 0.743238 3.20859 0.326752 3.57995C-0.0162541 3.87701 -0.10205 4.42671 0.130729 4.85744L0.645239 5.82293C0.914744 6.32796 1.0495 6.92219 1.03729 7.53115L1.00055 9.37314C1.00055 9.55136 0.939277 9.71477 0.829047 9.84854L0.13074 10.6953C0.0205075 10.829 0.0205075 11.0518 0.13074 11.2003C0.192009 11.2746 0.265497 11.3044 0.338983 11.3044C0.412471 11.3044 0.485959 11.2746 0.547226 11.2003L1.24553 10.3536C1.45378 10.1011 1.57631 9.75944 1.58854 9.38808L1.62528 7.54609C1.6375 6.80336 1.466 6.06063 1.13532 5.43674L0.620808 4.47125C0.559539 4.36722 0.584064 4.23355 0.669772 4.15925C0.890233 3.96611 1.18428 3.96611 1.39251 4.15925C1.6375 4.36721 1.84575 4.60491 1.9928 4.82768C2.43381 5.49611 2.72785 6.32796 2.72785 6.32796C2.7646 6.43199 2.85039 6.5211 2.9361 6.53592C3.03411 6.56566 3.13212 6.5211 3.2056 6.43189L6.96642 1.87154C7.10118 1.70814 7.32164 1.70814 7.45639 1.87154C7.59115 2.03495 7.59115 2.30227 7.45639 2.46567L4.60209 5.97161C4.36931 6.25387 4.2836 6.64004 4.34479 6.9966C4.61429 8.51179 3.6588 9.20995 3.62204 9.23961C3.48729 9.34364 3.43833 9.55161 3.51181 9.72981C3.56078 9.84866 3.65879 9.90803 3.76911 9.90803C3.81807 9.90803 3.86712 9.89321 3.91609 9.86347C4.28362 9.61096 4.85938 8.91278 4.96961 7.84326C5.06762 7.88781 5.16563 7.90263 5.27586 7.90263C5.32483 7.90263 5.37388 7.88781 5.41062 7.88781C5.44736 8.11059 5.53316 8.31854 5.66792 8.49688C5.85164 8.71965 6.08441 8.82368 6.32939 8.82368C6.36613 8.82368 6.40288 8.80886 6.45193 8.80886C6.47645 9.03163 6.56216 9.25452 6.70922 9.43275C6.80724 9.5516 6.92968 9.64071 7.05223 9.70008C6.56226 10.5319 5.97419 11.2896 5.53318 11.8242C5.14113 12.2847 4.60218 12.4779 4.06317 12.3293L3.74469 12.2401C3.64668 12.2104 3.54867 12.255 3.47518 12.3293L2.49514 13.5176C2.38491 13.6513 2.38491 13.8742 2.49514 14.0227C2.55641 14.097 2.6299 14.1267 2.70339 14.1267C2.77687 14.1267 2.85036 14.097 2.91163 14.0227L3.76912 12.9829L3.9284 13.0274C4.65115 13.2354 5.41073 12.9681 5.93744 12.3441C6.48868 11.6904 7.23594 10.71 7.7872 9.6554C7.873 9.59603 7.9587 9.53655 8.01998 9.44744L8.73049 8.58588C8.90199 8.37792 9 8.08085 9 7.78379C8.99991 7.47189 8.9019 7.18966 8.71818 6.96687L8.71804 6.96676ZM5.50848 7.07069C5.37372 7.2341 5.15326 7.2341 5.01851 7.07069C4.88376 6.90728 4.88376 6.63996 5.01851 6.47656L6.28029 4.94654C6.41504 4.78314 6.6355 4.78314 6.77025 4.94654C6.83152 5.02084 6.86826 5.13968 6.86826 5.24361C6.86826 5.36246 6.83152 5.46638 6.77025 5.54067L5.50848 7.07069ZM6.56191 7.99175C6.42715 8.15516 6.2067 8.15516 6.07195 7.99175C5.93719 7.82835 5.93719 7.56102 6.07195 7.39762L7.03967 6.22417C7.11316 6.13506 7.19895 6.10532 7.28465 6.10532C7.37045 6.10532 7.46837 6.14987 7.52963 6.22417C7.66439 6.38757 7.66439 6.6549 7.52963 6.8183L6.56191 7.99175ZM8.30151 8.08086L7.591 8.94243C7.45624 9.10583 7.23578 9.10583 7.10103 8.94243C6.96628 8.77902 6.96627 8.5117 7.10103 8.3483L7.81154 7.48673C7.9463 7.32333 8.16676 7.32333 8.30151 7.48673C8.36278 7.56103 8.39952 7.67987 8.39952 7.7838C8.41174 7.88773 8.375 7.99176 8.30151 8.08086Z" fill="white"/>
<path d="M2.91122 1.69339C3.0705 1.69339 3.20524 1.52999 3.20524 1.33686V0.356536C3.20524 0.163395 3.07049 0 2.91122 0C2.75194 0 2.61719 0.163405 2.61719 0.356536V1.33696C2.61727 1.53 2.75203 1.69342 2.91122 1.69342V1.69339Z" fill="white"/>
<path d="M1.42894 2.22815C1.49021 2.30245 1.5637 2.33219 1.63719 2.33219C1.71067 2.33219 1.78416 2.30245 1.84543 2.22815C1.95566 2.09449 1.95566 1.87162 1.84543 1.72313L1.26967 1.02496C1.15944 0.891296 0.963412 0.891296 0.853182 1.02496C0.74295 1.15863 0.74295 1.3815 0.853182 1.52999L1.42894 2.22815Z" fill="white"/>
<path d="M4.18545 2.33214C4.25894 2.33214 4.33243 2.3024 4.39369 2.22811L4.96945 1.52995C5.07969 1.39628 5.07969 1.17341 4.96945 1.02492C4.85922 0.891251 4.6632 0.891251 4.55297 1.02492L3.97721 1.72308C3.86697 1.85675 3.86697 2.07962 3.97721 2.22811C4.03839 2.3024 4.11188 2.33214 4.18545 2.33214Z" fill="white"/>
</svg>
